<svg xmlns="http://www.w3.org/2000/svg" width="24" height="24" viewBox="0 0 24 24">
  <g id="box-time" transform="translate(-492 -188)">
    <path id="Vector" d="M9.583,6.613a.746.746,0,0,1-.38-.1L.373,1.4A.753.753,0,0,1,1.133.1l8.45,4.89,8.4-4.86a.761.761,0,0,1,1.03.27.761.761,0,0,1-.27,1.03l-8.77,5.08A.94.94,0,0,1,9.583,6.613Z" transform="translate(494.417 194.687)" fill="#525457"/>
    <path id="Vector-2" data-name="Vector" d="M.75,10.57A.755.755,0,0,1,0,9.82V.75A.755.755,0,0,1,.75,0,.755.755,0,0,1,1.5.75V9.82A.755.755,0,0,1,.75,10.57Z" transform="translate(503.25 199.79)" fill="#525457"/>
    <path id="Vector-3" data-name="Vector" d="M10.37,21.51a5,5,0,0,1-2.44-.58L2.59,17.97A5.453,5.453,0,0,1,0,13.58V7.92A5.468,5.468,0,0,1,2.59,3.53L7.93.57a5.486,5.486,0,0,1,4.87,0l5.34,2.96a5.453,5.453,0,0,1,2.59,4.39v5.66a1.243,1.243,0,0,1-.03.3.752.752,0,0,1-1.23.4,3.269,3.269,0,0,0-4.14-.07,3.224,3.224,0,0,0-1.22,2.53,3.169,3.169,0,0,0,.47,1.67,1.966,1.966,0,0,0,.25.35.738.738,0,0,1,.17.62.729.729,0,0,1-.38.52l-1.83,1.01A4.7,4.7,0,0,1,10.37,21.51Zm0-20a3.643,3.643,0,0,0-1.7.38L3.33,4.85A3.99,3.99,0,0,0,1.52,7.92v5.66a4,4,0,0,0,1.81,3.07l5.34,2.96a3.991,3.991,0,0,0,3.41,0l1.12-.62a4.746,4.746,0,0,1,1.21-5.96,4.844,4.844,0,0,1,4.83-.66V7.91a4,4,0,0,0-1.81-3.07L12.09,1.88A3.92,3.92,0,0,0,10.37,1.51Z" transform="translate(493.63 189.24)" fill="#525457"/>
    <path id="Vector-4" data-name="Vector" d="M4.75,9.5A4.774,4.774,0,1,1,7.88,8.31,4.754,4.754,0,0,1,4.75,9.5Zm0-8a3.25,3.25,0,0,0,0,6.5A3.322,3.322,0,0,0,6.9,7.19,3.252,3.252,0,0,0,4.75,1.5Z" transform="translate(506.25 201.25)" fill="#525457"/>
    <path id="Vector-5" data-name="Vector" d="M.746,3.75a.747.747,0,0,1-.38-1.39l.89-.53V.75a.75.75,0,0,1,1.5,0v1.5a.751.751,0,0,1-.36.64l-1.25.75A.782.782,0,0,1,.746,3.75Z" transform="translate(509.254 204)" fill="#525457"/>
    <path id="Vector-6" data-name="Vector" d="M0,0H24V24H0Z" transform="translate(492 188)" fill="none" opacity="0"/>
  </g>
</svg>
