<svg id="Component_46_1" data-name="Component 46 – 1" xmlns="http://www.w3.org/2000/svg" width="45" height="45" viewBox="0 0 45 45">
  <circle id="Ellipse_5" data-name="Ellipse 5" cx="22.5" cy="22.5" r="22.5" fill="#323539"/>
  <g id="Iconly_Bulk_Calling" data-name="Iconly/Bulk/Calling" transform="translate(9.5 9.5)">
    <g id="Calling" transform="translate(2 2)">
      <path id="Fill_1" data-name="Fill 1" d="M1.122.017A.947.947,0,0,0,.762,1.875,3.808,3.808,0,0,1,3.781,4.9h0a.945.945,0,0,0,.925.765,1.026,1.026,0,0,0,.182-.016.951.951,0,0,0,.745-1.112A5.692,5.692,0,0,0,1.122.017" transform="translate(12.538 3.822)" fill="#fff"/>
      <path id="Fill_3" data-name="Fill 3" d="M1.049.009A.9.9,0,0,0,.361.2.949.949,0,0,0,.839,1.89,7.6,7.6,0,0,1,7.577,8.642a.943.943,0,0,0,.936.841.88.88,0,0,0,.107-.007.932.932,0,0,0,.632-.35.942.942,0,0,0,.2-.7A9.478,9.478,0,0,0,1.049.009" transform="translate(12.543)" fill="#fff"/>
      <path id="Fill_6" data-name="Fill 6" d="M17.165,13.09a2.432,2.432,0,0,0-1.777.466c-.512.3-1.485,1.083-2.042.88a12.643,12.643,0,0,1-6.7-6.513c-.2-.568.581-1.543.875-2.058a2.459,2.459,0,0,0,.464-1.782A14.493,14.493,0,0,0,5.51.651,2.044,2.044,0,0,0,4.27,0C2.676-.065.9,2.053.584,2.559-.2,3.64-.194,5.078.6,6.821,2.5,11.5,9.713,18.571,14.432,20.541a5.717,5.717,0,0,0,2.383.609,3.107,3.107,0,0,0,1.859-.58c.4-.232,2.618-2.093,2.559-3.723a2.042,2.042,0,0,0-.644-1.233,14.71,14.71,0,0,0-3.423-2.523" transform="translate(0 0.85)" fill="#fff" stroke="rgba(0,0,0,0)" stroke-width="1"/>
    </g>
  </g>
</svg>
