<svg id="Filter" xmlns="http://www.w3.org/2000/svg" width="20" height="17.778" viewBox="0 0 20 17.778">
  <path id="Fill_1" data-name="Fill 1" d="M8.083,0H1.508A1.5,1.5,0,0,0,0,1.481,1.5,1.5,0,0,0,1.508,2.963H8.083A1.5,1.5,0,0,0,9.591,1.481,1.5,1.5,0,0,0,8.083,0" transform="translate(0 12.958)" fill="#525457" opacity="0.4"/>
  <path id="Fill_4" data-name="Fill 4" d="M9.59,1.48A1.5,1.5,0,0,0,8.083,0H1.508A1.5,1.5,0,0,0,0,1.48,1.5,1.5,0,0,0,1.508,2.962H8.083A1.5,1.5,0,0,0,9.59,1.48" transform="translate(10.409 1.898)" fill="#525457" opacity="0.4"/>
  <path id="Fill_6" data-name="Fill 6" d="M6.878,3.379a3.409,3.409,0,0,1-3.439,3.38A3.41,3.41,0,0,1,0,3.379,3.41,3.41,0,0,1,3.439,0,3.409,3.409,0,0,1,6.878,3.379" fill="#525457"/>
  <path id="Fill_9" data-name="Fill 9" d="M6.878,3.38A3.409,3.409,0,0,1,3.439,6.758,3.41,3.41,0,0,1,0,3.38,3.41,3.41,0,0,1,3.439,0,3.409,3.409,0,0,1,6.878,3.38" transform="translate(13.122 11.02)" fill="#525457"/>
</svg>
