<svg xmlns="http://www.w3.org/2000/svg" width="65" height="65" viewBox="0 0 65 65">
  <g id="Help_Center" data-name="Help Center" transform="translate(-829 -771)">
    <g id="Icon" transform="translate(828.513 771.503)">
      <path id="Path_1" data-name="Path 1" d="M42.832,33.924c.006-1.14.011-2.245.013-3.2-.5.937-1.081,2.047-1.676,3.2Z" fill="#bf1f2c"/>
      <path id="Path_2" data-name="Path 2" d="M60,18.5h-32a3.5,3.5,0,0,0-3.5,3.5v20a3.5,3.5,0,0,0,3.5,3.5H60a3.5,3.5,0,0,0,3.5-3.5V22A3.5,3.5,0,0,0,60,18.5ZM35.324,40.479c-1.594.021-2.762.03-3.624.03a8.675,8.675,0,0,1-2.612-.134,1.629,1.629,0,0,1-.982-1.009c-.25-.8.106-1.293.816-2.278.569-.79,1.629-2.261,3.406-4.954a4.619,4.619,0,0,0,1-2.293,1.458,1.458,0,0,0-1.37-1.471A1.426,1.426,0,0,0,30.614,29.6a1.5,1.5,0,0,1-2.951-.545,4.361,4.361,0,0,1,8.665.863,8.1,8.1,0,0,1-1.5,3.87c-1.087,1.647-1.912,2.847-2.524,3.718.919,0,1.976-.013,2.975-.026h.02a1.5,1.5,0,1,1,.02,3Zm10.491-3.555c-.007.941-.013,1.7-.016,2.094a1.5,1.5,0,0,1-1.5,1.489h-.012A1.5,1.5,0,0,1,42.8,38.994c0-.637.011-1.338.016-2.07h-4.1a1.5,1.5,0,0,1-1.336-2.182c.89-1.743,3.841-7.5,4.487-8.352,1.418-1.881,3.793-.979,3.962,1.205.033.427.025,3.458.011,6.33a1.5,1.5,0,0,1-.019,3Zm13.047,3.583h-.006a1.5,1.5,0,0,1-1.5-1.495l-.018-4.806c.01-1.88-.355-2.527-.573-2.747-.076-.076-.278-.279-1-.279-1.2,0-2.034,1.241-2.034,3.02v4.806a1.5,1.5,0,1,1-3,0V25a1.5,1.5,0,1,1,3,0v3.635a4.629,4.629,0,0,1,2.034-.459c3.432,0,4.592,2.582,4.575,6.028L60.356,39a1.5,1.5,0,0,1-1.494,1.506Z" fill="#bf1f2c"/>
      <path id="Path_3" data-name="Path 3" d="M44.847,48.685a1.5,1.5,0,0,0-1.246-.672l-7.212-.021h0a1.5,1.5,0,0,0-1.234.647l-2.64,3.817a20.407,20.407,0,0,1-19.148-28.9l4.544-.944a1.5,1.5,0,0,0,1.078-.888l2.792-6.649a1.5,1.5,0,0,0-.132-1.409l-4.972-7.5a1.5,1.5,0,0,0-2.079-.422A31.5,31.5,0,1,0,49.4,58.268a1.5,1.5,0,0,0,.422-2.078ZM8.234,47.75A28.543,28.543,0,0,1,15.022,9.1L18.7,14.656l-2.176,5.181-4.5.935a1.5,1.5,0,0,0-1.039.8A23.412,23.412,0,0,0,33.411,55.42a1.5,1.5,0,0,0,1.143-.644L37.17,51l5.62.017,3.678,5.552A28.547,28.547,0,0,1,8.234,47.75Z" fill="#525457"/>
      <path id="Path_4" data-name="Path 4" d="M57.571,47.772a1.5,1.5,0,0,0-2.086.385,28.616,28.616,0,0,1-3.537,4.2,1.5,1.5,0,1,0,2.1,2.143,31.748,31.748,0,0,0,3.906-4.645,1.5,1.5,0,0,0-.385-2.086Z" fill="#525457"/>
      <path id="Path_5" data-name="Path 5" d="M21.544,5.477A28.539,28.539,0,0,1,55.485,15.853a1.5,1.5,0,1,0,2.471-1.7A31.539,31.539,0,0,0,20.443,2.686a1.5,1.5,0,1,0,1.1,2.791Z" fill="#525457"/>
      <path id="Path_6" data-name="Path 6" d="M24.537,8.658a1.5,1.5,0,1,0,.913,2.858,21.54,21.54,0,0,1,21.028,4.6A1.5,1.5,0,0,0,48.5,13.894,24.539,24.539,0,0,0,24.537,8.658Z" fill="#525457"/>
    </g>
    <rect id="Rectangle_1" data-name="Rectangle 1" width="65" height="65" transform="translate(829 771)" fill="none"/>
  </g>
</svg>
