<svg xmlns="http://www.w3.org/2000/svg" width="45" height="45" viewBox="0 0 45 45">
  <g id="Group_9144" data-name="Group 9144" transform="translate(-270.353 -7231)">
    <circle id="Ellipse_5" data-name="Ellipse 5" cx="22.5" cy="22.5" r="22.5" transform="translate(270.353 7231)" fill="#323539"/>
    <g id="Iconly_Bold_Location" data-name="Iconly/Bold/Location" transform="translate(280.853 7241.5)">
      <g id="Location" transform="translate(3.5 2)">
        <path id="Location-2" data-name="Location" d="M8.5,20a1.358,1.358,0,0,1-.734-.247,21.513,21.513,0,0,1-5.54-5.141A10.384,10.384,0,0,1,0,8.318,8.168,8.168,0,0,1,2.5,2.434,8.53,8.53,0,0,1,8.493,0,8.423,8.423,0,0,1,17,8.318a10.39,10.39,0,0,1-2.23,6.294,21.92,21.92,0,0,1-5.541,5.141A1.319,1.319,0,0,1,8.5,20ZM8.493,5.777a2.8,2.8,0,0,0-2.8,2.8,2.712,2.712,0,0,0,.821,1.954,2.823,2.823,0,0,0,4.79-1.954,2.824,2.824,0,0,0-2.813-2.8Z" fill="#fff"/>
      </g>
    </g>
  </g>
</svg>
