<svg xmlns="http://www.w3.org/2000/svg" width="65" height="65" viewBox="0 0 65 65">
  <g id="Return_Policy" data-name="Return Policy" transform="translate(-1624 -766)">
    <g id="Icon" transform="translate(1624.5 766.5)">
      <path id="Path_12" data-name="Path 12" d="M29,.5A16.5,16.5,0,1,0,45.5,17,16.5,16.5,0,0,0,29,.5Zm0,28A11.513,11.513,0,0,1,17.5,17a1.5,1.5,0,0,1,3,0A8.51,8.51,0,0,0,29,25.5a1.5,1.5,0,1,1,0,3Zm10-10A1.5,1.5,0,0,1,37.5,17,8.51,8.51,0,0,0,29,8.5a1.5,1.5,0,1,1,0-3A11.513,11.513,0,0,1,40.5,17,1.5,1.5,0,0,1,39,18.5Z" fill="#bf1f2c"/>
      <path id="Path_13" data-name="Path 13" d="M60,37.5H57.5V30A1.5,1.5,0,0,0,56,28.5H54.5V22A1.5,1.5,0,0,0,53,20.5H49a1.5,1.5,0,0,0,0,3h2.5v5H45a1.5,1.5,0,0,0,0,3h9.5v6H52a8.5,8.5,0,0,0,0,17h2.5V60a.5.5,0,0,1-.5.5H6A2.5,2.5,0,0,1,3.5,58V30.893A5.46,5.46,0,0,0,6,31.5h6a1.5,1.5,0,0,0,0-3H6a2.5,2.5,0,1,1,0-5H9a1.5,1.5,0,0,0,0-3H6A5.507,5.507,0,0,0,.5,26V58A5.507,5.507,0,0,0,6,63.5H54A3.5,3.5,0,0,0,57.5,60V54.5H60A3.5,3.5,0,0,0,63.5,51V41A3.5,3.5,0,0,0,60,37.5ZM60.5,51a.5.5,0,0,1-.5.5H52a5.5,5.5,0,1,1,0-11h8a.5.5,0,0,1,.5.5Z" fill="#525457"/>
      <path id="Path_14" data-name="Path 14" d="M6.5,46V56A1.5,1.5,0,0,0,8,57.5H28A1.5,1.5,0,0,0,29.5,56V46A1.5,1.5,0,0,0,28,44.5H8A1.5,1.5,0,0,0,6.5,46Zm3,1.5h17v7H9.5Z" fill="#525457"/>
      <path id="Path_24" data-name="Path 24" d="M2.5,0A2.5,2.5,0,1,1,0,2.5,2.5,2.5,0,0,1,2.5,0Z" transform="translate(49.5 43.5)" fill="#525457"/>
    </g>
    <rect id="Rectangle_4" data-name="Rectangle 4" width="65" height="65" transform="translate(1624 766)" fill="none"/>
  </g>
</svg>
