<svg xmlns="http://www.w3.org/2000/svg" width="65" height="65" viewBox="0 0 65 65">
  <g id="Safe_Payment_Methods" data-name="Safe Payment Methods" transform="translate(-1238 -760)">
    <g id="Icon" transform="translate(1238.5 760.5)">
      <g id="Group_2" data-name="Group 2">
        <path id="Path_7" data-name="Path 7" d="M33.382,30.289v6.164A3.731,3.731,0,0,0,35.5,33.685,2.913,2.913,0,0,0,33.382,30.289Z" fill="#bf1f2c"/>
        <path id="Path_8" data-name="Path 8" d="M29.046,23.279a2.055,2.055,0,0,0,1.336,2.466V21.4a2.678,2.678,0,0,0-1.336,1.884Z" fill="#bf1f2c"/>
        <path id="Path_9" data-name="Path 9" d="M32,12.5A16.5,16.5,0,1,0,48.5,29,16.5,16.5,0,0,0,32,12.5Zm6.462,21.682a6.745,6.745,0,0,1-5.08,5.416V41a1.5,1.5,0,0,1-3,0V39.734A8.1,8.1,0,0,1,26.127,38.2a1.5,1.5,0,1,1,1.643-2.51,5.284,5.284,0,0,0,2.612,1.031V29.106c-2.94-1.327-4.933-2.933-4.284-6.382a5.539,5.539,0,0,1,4.284-4.481V17a1.5,1.5,0,0,1,3,0v1.129a7.034,7.034,0,0,1,3.35,1.535,1.5,1.5,0,0,1-2.024,2.216,3.94,3.94,0,0,0-1.326-.67V27.1c.352.132.7.261,1.05.383a5.857,5.857,0,0,1,4.03,6.7Z" fill="#bf1f2c"/>
      </g>
      <path id="Path_10" data-name="Path 10" d="M40,52.5H24a1.5,1.5,0,0,1,0-3H40a1.5,1.5,0,0,1,0,3Z" fill="#525457"/>
      <path id="Path_11" data-name="Path 11" d="M57.649,12.648l-25-12a1.5,1.5,0,0,0-1.3,0l-25,12A1.5,1.5,0,0,0,5.5,14V31.5A32.687,32.687,0,0,0,31.706,63.471a1.489,1.489,0,0,0,.588,0A32.687,32.687,0,0,0,58.5,31.5V14a1.5,1.5,0,0,0-.851-1.352ZM55.5,31.5A29.681,29.681,0,0,1,32,60.469,29.681,29.681,0,0,1,8.5,31.5V14.944L32,3.664l23.5,11.28Z" fill="#525457"/>
    </g>
    <rect id="Rectangle_3" data-name="Rectangle 3" width="65" height="65" transform="translate(1238 760)" fill="none"/>
  </g>
</svg>
