<svg xmlns="http://www.w3.org/2000/svg" width="65" height="65" viewBox="0 0 65 65">
  <g id="Shipping_to_all_countries" data-name="Shipping to all countries" transform="translate(-491 -754)">
    <g id="Icon" transform="translate(491.5 754.5)">
      <path id="Path_20" data-name="Path 20" d="M62.576,29.16,54.436,16.949A5.49,5.49,0,0,0,49.859,14.5H40A3.5,3.5,0,0,0,36.5,18V32.5H2A1.5,1.5,0,0,0,.5,34V53A3.5,3.5,0,0,0,4,56.5H6.525a7.491,7.491,0,0,0,14.949,0H41.525a7.491,7.491,0,0,0,14.949,0H60A3.5,3.5,0,0,0,63.5,53V32.211A5.478,5.478,0,0,0,62.576,29.16ZM51.939,18.613,60.08,30.825a2.491,2.491,0,0,1,.42,1.386V37.5H48A2.5,2.5,0,0,1,45.5,35V17.5h4.359A2.5,2.5,0,0,1,51.939,18.613ZM3.5,35.5h33v7H3.5ZM14,60.5A4.5,4.5,0,1,1,18.5,56,4.5,4.5,0,0,1,14,60.5Zm35,0A4.5,4.5,0,1,1,53.5,56,4.5,4.5,0,0,1,49,60.5Zm11-7H56.063a7.488,7.488,0,0,0-14.125,0H21.063a7.488,7.488,0,0,0-14.125,0H4a.5.5,0,0,1-.5-.5V45.5H38A1.5,1.5,0,0,0,39.5,44V18a.5.5,0,0,1,.5-.5h2.5V35A5.507,5.507,0,0,0,48,40.5H60.5V53a.5.5,0,0,1-.5.5Z" fill="#525457"/>
      <path id="Path_21" data-name="Path 21" d="M47,43.5H44a1.5,1.5,0,0,0,0,3h3a1.5,1.5,0,0,0,0-3Z" fill="#525457"/>
      <path id="Path_22" data-name="Path 22" d="M14,10.5H4A3.5,3.5,0,0,0,.5,14V26A3.5,3.5,0,0,0,4,29.5H14A3.5,3.5,0,0,0,17.5,26V14A3.5,3.5,0,0,0,14,10.5Zm-4,6H8a1.5,1.5,0,0,1,0-3h2a1.5,1.5,0,0,1,0,3Z" fill="#bf1f2c"/>
      <path id="Path_23" data-name="Path 23" d="M30,.5H14A3.5,3.5,0,0,0,10.5,4V8.5H14A5.506,5.506,0,0,1,19.5,14V26a5.475,5.475,0,0,1-1.261,3.5H30A3.5,3.5,0,0,0,33.5,26V4A3.5,3.5,0,0,0,30,.5Zm-7,6H21a1.5,1.5,0,0,1,0-3h2a1.5,1.5,0,0,1,0,3Z" fill="#bf1f2c"/>
    </g>
    <rect id="Rectangle_2" data-name="Rectangle 2" width="65" height="65" transform="translate(491 754)" fill="none"/>
  </g>
</svg>
