<svg id="Icon" xmlns="http://www.w3.org/2000/svg" width="31.004" height="31.004" viewBox="0 0 31.004 31.004">
  <path id="Path_20" data-name="Path 20" d="M31.049,21.715l-4.006-6.01A2.7,2.7,0,0,0,24.791,14.5H19.939a1.725,1.725,0,0,0-1.722,1.722v7.136H1.238A.738.738,0,0,0,.5,24.1v9.35a1.725,1.725,0,0,0,1.722,1.722H3.465a3.686,3.686,0,0,0,7.357,0H20.69a3.686,3.686,0,0,0,7.357,0h1.735A1.725,1.725,0,0,0,31.5,33.447V23.216A2.7,2.7,0,0,0,31.049,21.715Zm-5.235-5.19,4.006,6.01a1.226,1.226,0,0,1,.207.682v2.6H23.876a1.231,1.231,0,0,1-1.23-1.23V15.976h2.145A1.228,1.228,0,0,1,25.815,16.524ZM1.976,24.835h16.24V28.28H1.976Zm5.167,12.3a2.215,2.215,0,1,1,2.215-2.215,2.215,2.215,0,0,1-2.215,2.215Zm17.224,0a2.215,2.215,0,1,1,2.215-2.215A2.215,2.215,0,0,1,24.368,37.138Zm5.413-3.445H27.844a3.685,3.685,0,0,0-6.951,0H10.619a3.685,3.685,0,0,0-6.951,0H2.222a.246.246,0,0,1-.246-.246V29.756H18.955a.738.738,0,0,0,.738-.738v-12.8a.246.246,0,0,1,.246-.246h1.23v8.612A2.71,2.71,0,0,0,23.876,27.3h6.152v6.152A.247.247,0,0,1,29.781,33.693Z" transform="translate(-0.5 -7.61)" fill="#525457"/>
  <path id="Path_21" data-name="Path 21" d="M44.715,43.5H43.238a.738.738,0,0,0,0,1.476h1.476a.738.738,0,0,0,0-1.476Z" transform="translate(-21.831 -22.339)" fill="#525457"/>
  <path id="Path_22" data-name="Path 22" d="M7.144,10.5H2.222A1.725,1.725,0,0,0,.5,12.222v5.906A1.725,1.725,0,0,0,2.222,19.85H7.144a1.725,1.725,0,0,0,1.722-1.722V12.222A1.725,1.725,0,0,0,7.144,10.5ZM5.175,13.453H4.191a.738.738,0,1,1,0-1.476h.984a.738.738,0,1,1,0,1.476Z" transform="translate(-0.5 -5.579)" fill="#bf1f2c"/>
  <path id="Path_23" data-name="Path 23" d="M20.1.5H12.222A1.725,1.725,0,0,0,10.5,2.222V4.437h1.722a2.71,2.71,0,0,1,2.707,2.707v5.906a2.694,2.694,0,0,1-.62,1.722H20.1a1.725,1.725,0,0,0,1.722-1.722V2.222A1.725,1.725,0,0,0,20.1.5ZM16.652,3.453h-.984a.738.738,0,0,1,0-1.476h.984a.738.738,0,0,1,0,1.476Z" transform="translate(-5.579 -0.5)" fill="#bf1f2c"/>
</svg>
