<svg id="shopping-cart" xmlns="http://www.w3.org/2000/svg" width="32.567" height="32.567" viewBox="0 0 32.567 32.567">
  <path id="Vector" d="M22.987,22.39H8.535a4.835,4.835,0,0,1-4.8-5.224L4.858,3.65A1.489,1.489,0,0,0,3.365,2.035H1.018A1.025,1.025,0,0,1,0,1.018,1.025,1.025,0,0,1,1.018,0H3.379A3.508,3.508,0,0,1,6.758,2.551H23.706a4.839,4.839,0,0,1,3.555,1.52,4.782,4.782,0,0,1,1.262,3.65L27.791,17.9A4.869,4.869,0,0,1,22.987,22.39ZM6.826,4.573,5.767,17.328a2.769,2.769,0,0,0,2.768,3.012H22.987a2.894,2.894,0,0,0,2.8-2.605l.733-10.177a2.769,2.769,0,0,0-2.8-3H6.826Z" transform="translate(1.696 1.696)" fill="#fff"/>
  <path id="Vector-2" data-name="Vector" d="M2.714,5.428A2.714,2.714,0,1,1,5.428,2.714,2.722,2.722,0,0,1,2.714,5.428Zm0-3.392a.678.678,0,1,0,.678.678A.672.672,0,0,0,2.714,2.035Z" transform="translate(19.337 25.443)" fill="#fff"/>
  <path id="Vector-3" data-name="Vector" d="M2.714,5.428A2.714,2.714,0,1,1,5.428,2.714,2.722,2.722,0,0,1,2.714,5.428Zm0-3.392a.678.678,0,1,0,.678.678A.672.672,0,0,0,2.714,2.035Z" transform="translate(8.481 25.443)" fill="#fff"/>
  <path id="Vector-4" data-name="Vector" d="M17.3,2.035H1.018A1.025,1.025,0,0,1,0,1.018,1.025,1.025,0,0,1,1.018,0H17.3a1.025,1.025,0,0,1,1.018,1.018A1.025,1.025,0,0,1,17.3,2.035Z" transform="translate(11.195 9.838)" fill="#fff"/>
  <path id="Vector-5" data-name="Vector" d="M0,0H32.567V32.567H0Z" fill="none" opacity="0"/>
</svg>
