<svg id="shopping" xmlns="http://www.w3.org/2000/svg" width="47.724" height="49.429" viewBox="0 0 47.724 49.429">
  <g id="shopping-cart" transform="translate(0 8.969)">
    <path id="Vector" d="M28.558,27.816H10.6a6.007,6.007,0,0,1-5.968-6.49l1.4-16.791A1.85,1.85,0,0,0,4.181,2.529H1.264A1.274,1.274,0,0,1,0,1.264,1.274,1.274,0,0,1,1.264,0H4.2A4.359,4.359,0,0,1,8.4,3.169H29.451a6.012,6.012,0,0,1,4.417,1.888,5.941,5.941,0,0,1,1.568,4.535l-.91,12.644A6.049,6.049,0,0,1,28.558,27.816ZM8.48,5.681,7.165,21.528A3.44,3.44,0,0,0,10.6,25.27H28.558a3.6,3.6,0,0,0,3.473-3.237l.91-12.644a3.44,3.44,0,0,0-3.473-3.726H8.48Z" transform="translate(2.107 2.107)" fill="#525457"/>
    <path id="Vector-2" data-name="Vector" d="M3.372,6.743A3.372,3.372,0,1,1,6.743,3.372,3.382,3.382,0,0,1,3.372,6.743Zm0-4.215a.843.843,0,1,0,.843.843A.835.835,0,0,0,3.372,2.529Z" transform="translate(24.023 31.609)" fill="#525457"/>
    <path id="Vector-3" data-name="Vector" d="M3.372,6.743A3.372,3.372,0,1,1,6.743,3.372,3.382,3.382,0,0,1,3.372,6.743Zm0-4.215a.843.843,0,1,0,.843.843A.835.835,0,0,0,3.372,2.529Z" transform="translate(10.536 31.609)" fill="#525457"/>
    <path id="Vector-4" data-name="Vector" d="M21.494,2.529H1.264A1.274,1.274,0,0,1,0,1.264,1.274,1.274,0,0,1,1.264,0h20.23a1.274,1.274,0,0,1,1.264,1.264A1.274,1.274,0,0,1,21.494,2.529Z" transform="translate(13.908 12.222)" fill="#525457"/>
    <path id="Vector-5" data-name="Vector" d="M0,0H40.46V40.46H0Z" fill="none" opacity="0"/>
  </g>
  <g id="Tick_Square" data-name="Tick Square" transform="translate(22.877)">
    <circle id="Ellipse_367" data-name="Ellipse 367" cx="12.424" cy="12.424" r="12.424" transform="translate(0 0)" fill="#028c59"/>
    <path id="Path" d="M10.86,2,4.872,8.362a1.065,1.065,0,0,1-1.55,0l-3-3.173a1.233,1.233,0,0,1,0-1.66,1.065,1.065,0,0,1,1.563,0L4.091,5.871,9.3.341a1.065,1.065,0,0,1,1.563,0,1.233,1.233,0,0,1,0,1.66" transform="translate(6.833 8.075)" fill="#fff"/>
  </g>
</svg>
