<svg id="icon" xmlns="http://www.w3.org/2000/svg" width="45" height="45" viewBox="0 0 45 45">
  <circle id="Image" cx="22.5" cy="22.5" r="22.5" fill="#f0f0f0"/>
  <g id="volunteer_activism_black_24dp" transform="translate(8 8)">
    <g id="Group_10580" data-name="Group 10580">
      <rect id="Rectangle_12214" data-name="Rectangle 12214" width="29.401" height="29.401" fill="none"/>
    </g>
    <g id="Group_10582" data-name="Group 10582" transform="translate(1.225 2.45)">
      <g id="Group_10581" data-name="Group 10581">
        <path id="Path_54093" data-name="Path 54093" d="M3.45,11h0A2.457,2.457,0,0,0,1,13.45v8.575a2.457,2.457,0,0,0,2.45,2.45h0a2.457,2.457,0,0,0,2.45-2.45V13.45A2.457,2.457,0,0,0,3.45,11Z" transform="translate(-1 0.026)" fill="#262626"/>
        <path id="Path_54094" data-name="Path 54094" d="M10,6.043A4,4,0,0,1,14.043,2,4.431,4.431,0,0,1,17.35,3.531,4.431,4.431,0,0,1,20.658,2,4,4,0,0,1,24.7,6.043c0,2.573-3.063,5.525-6.53,8.686a1.224,1.224,0,0,1-1.654,0C13.063,11.568,10,8.615,10,6.043" transform="translate(1.026 -2)" fill="#bf1f2c"/>
        <path id="Path_54095" data-name="Path 54095" d="M22.914,18.35H14.546a1.176,1.176,0,0,1-.4-.074l-1.8-.625a.6.6,0,0,1-.368-.772h0a.6.6,0,0,1,.784-.368l1.372.527a1.343,1.343,0,0,0,.441.086h3.222a1.448,1.448,0,0,0,1.446-1.446h0a1.471,1.471,0,0,0-.943-1.36L9.818,11.159A2.268,2.268,0,0,0,8.96,11H7V22.05l7.8,2.217a2.427,2.427,0,0,0,1.531-.061L25.376,20.8h0A2.452,2.452,0,0,0,22.914,18.35Z" transform="translate(0.35 0.026)" fill="#262626"/>
      </g>
    </g>
  </g>
</svg>
