<svg id="Component_45_1" data-name="Component 45 – 1" xmlns="http://www.w3.org/2000/svg" width="57.999" height="18" viewBox="0 0 57.999 18">
  <path id="Path_2" data-name="Path 2" d="M254.666,173.436H249.9l2.977-17.358h4.764Z" transform="translate(-229.512 -155.751)" fill="#0066b2"/>
  <path id="Path_3" data-name="Path 3" d="M240.013,156.079l-4.541,11.938-.538-2.571h0l-1.6-7.805s-.193-1.563-2.259-1.563h-7.507l-.088.294a18.391,18.391,0,0,1,4.984,1.984l4.137,15.08h4.963l7.579-17.357Z" transform="translate(-223.477 -155.752)" fill="#0066b2"/>
  <path id="Path_4" data-name="Path 4" d="M289.343,173.436h4.374L289.9,156.079h-3.829a2.18,2.18,0,0,0-2.2,1.293l-7.1,16.064h4.965l.993-2.578h6.056ZM284.1,167.3l2.5-6.5,1.409,6.5Z" transform="translate(-235.717 -155.752)" fill="#0066b2"/>
  <path id="Path_5" data-name="Path 5" d="M273.367,160.15l.679-3.734a14.37,14.37,0,0,0-4.283-.758c-2.364,0-7.978.982-7.978,5.757,0,4.493,6.589,4.549,6.589,6.907s-5.91,1.938-7.861.45l-.707,3.9a13.922,13.922,0,0,0,5.377.983c3.25,0,8.155-1.6,8.155-5.953,0-4.521-6.648-4.943-6.648-6.909S271.329,159.083,273.367,160.15Z" transform="translate(-231.805 -155.658)" fill="#0066b2"/>
</svg>
