<svg xmlns="http://www.w3.org/2000/svg" width="35" height="33.248" viewBox="0 0 35 33.248">
  <g id="Star" transform="translate(-964.614 -1440)">
    <path id="Star-2" data-name="Star" d="M27.854,20.682a1.926,1.926,0,0,0-.558,1.7l1.556,8.609a1.89,1.89,0,0,1-.787,1.89,1.926,1.926,0,0,1-2.047.14l-7.75-4.042a1.979,1.979,0,0,0-.875-.229h-.474a1.42,1.42,0,0,0-.472.157L8.694,32.966a2.044,2.044,0,0,1-1.242.192,1.945,1.945,0,0,1-1.557-2.224l1.557-8.609a1.958,1.958,0,0,0-.558-1.713L.575,14.488A1.889,1.889,0,0,1,.1,12.511,1.965,1.965,0,0,1,1.66,11.2l8.7-1.262A1.946,1.946,0,0,0,11.9,8.871l3.832-7.856a1.821,1.821,0,0,1,.35-.472L16.236.42a1.175,1.175,0,0,1,.282-.227l.191-.07.3-.122h.737a1.957,1.957,0,0,1,1.54,1.05l3.883,7.821a1.945,1.945,0,0,0,1.452,1.066l8.7,1.262a1.984,1.984,0,0,1,1.592,1.312,1.9,1.9,0,0,1-.507,1.977Z" transform="translate(964.614 1440)" fill="#ffb92b"/>
  </g>
</svg>
